# xmcd
#
# Track frame offsets:
#	182
#	32995
#	55310
#	67032
#	78465
#	97367
#	132455
#	149600
#	162877
#	185630
#
# Disc length: 2702 seconds
#
# Revision: 1
# Processed by: cddbd v1.4PL0 Copyright (c) Steve Scherf et al.
# Submitted via: audiograbber 1.81.02
#
DISCID=9e0a8c0a
DTITLE=Various Artist - Legendary Blues Classics (Disk 3)
DYEAR=1991
DGENRE=Blues
TTITLE0=Big Joe Turner (with Mike Bloomfield) - Night Time Is The Right Time
TTITLE1=Z.Z. Hill - It Ain't No Use
TTITLE2=Elmore James - Shake Your Money Maker
TTITLE3=Buster Brown - Is You Is Or Is You Ain't My Baby
TTITLE4=Memphis Slim - Pinetop Boogie
TTITLE5=Big Mama "Willie Mae" Thorton - Ball And Chain
TTITLE6=Muddy Waters - Got My Mojo Workin'
TTITLE7=John Lee Hooker - I'm Goin' Upstairs
TTITLE8=B.B. King - Everyday I Have The Blues
TTITLE9=Roy Brown - Travelin' Blues
EXTD=
EXTT0=
EXTT1=
EXTT2=
EXTT3=
EXTT4=
EXTT5=
EXTT6=
EXTT7=
EXTT8=
EXTT9=
PLAYORDER=
